<?xml version="1.0" standalone="no"?> <!DOCTYPE svg PUBLIC "-//W3C//DTD SVG 1.0//EN" "http://www.w3.org/TR/2001/REC-SVG-20010904/DTD/svg10.dtd" > <svg xmlns="http://www.w3.org/2000/svg" width="100%" height="100%">
<defs >
<font horiz-adv-x="0" ><font-face
    font-family="Theo Van Doesburg"
    units-per-em="1000"
    panose-1="0 0 11 0 0 0 0 0 0 0"
    ascent="1002"
    descent="-200"
    alphabetic="0" />
<missing-glyph horiz-adv-x="500" d="M63 0V800H438V0H63ZM125 63H375V738H125V63Z" />
<glyph unicode=" " glyph-name="space" horiz-adv-x="500" />
<glyph unicode="0" glyph-name="zero" horiz-adv-x="840" d="M800 0H400V160H640V640H400V800H800V0ZM400 0H0V800H400V640H160V160H400V0Z" />
<glyph unicode="1" glyph-name="one" horiz-adv-x="168" d="M0 800H160V0H0V800Z" />
<glyph unicode="2" glyph-name="two" horiz-adv-x="840" d="M0 800H800V320H160V160H800V0H0V480H640V640H0V800Z" />
<glyph unicode="3" glyph-name="three" horiz-adv-x="840" d="M0 320V480H640V640H0V800H800V0H0V160H640V320H0Z" />
<glyph unicode="4" glyph-name="four" horiz-adv-x="840" d="M0 800H160V480H640V800H800V0H640V320H0V800Z" />
<glyph unicode="5" glyph-name="five" horiz-adv-x="840" d="M800 800H0V320H640V160H0V0H800V480H160V640H800V800Z" />
<glyph unicode="6" glyph-name="six" horiz-adv-x="840" d="M400 0H800V480H400V320H640V160H400V0ZM160 800H0V0H400V160H160V320H400V480H160V800Z" />
<glyph unicode="7" glyph-name="seven" horiz-adv-x="840" d="M0 800V640H640V0H800V800H0Z" />
<glyph unicode="8" glyph-name="eight" horiz-adv-x="840" d="M400 800H800V0H400V160H640V320H400V480H640V640H400V800ZM0 800H400V640H160V480H400V320H160V160H400V0H0V800Z" />
<glyph unicode="9" glyph-name="nine" horiz-adv-x="840" d="M640 0H800V800H400V640H640V480H400V320H640V0ZM400 800H0V320H400V480H160V640H400V800Z" />
<glyph unicode="?" glyph-name="question" horiz-adv-x="840" d="M0 800H800V320H160V0H0V480H640V640H0V800Z" />
<glyph unicode="A" glyph-name="A" horiz-adv-x="840" d="M400 800H800V0H640V320H400V490H640V650H400V800ZM0 800H400V650H160V490H400V320H160V0H0V800Z" />
<glyph unicode="B" glyph-name="B" horiz-adv-x="840" d="M441 800H800V0H441V160H641V320H441V480H641V640H441V800ZM0 800H441V640H241V480H441V320H241V160H441V0H0V160H80V640H0V800Z" />
<glyph unicode="C" glyph-name="C" horiz-adv-x="840" d="M0 800H800V640H160V160H800V0H0V800Z" />
<glyph unicode="D" glyph-name="D" horiz-adv-x="840" d="M441 800H800V0H441V160H641V640H441V800ZM0 800H441V640H241V160H441V0H0V160H80V640H0V800Z" />
<glyph unicode="E" glyph-name="E" horiz-adv-x="840" d="M800 480V320H160V160H800V0H0V800H800V640H160V480H800Z" />
<glyph unicode="F" glyph-name="F" horiz-adv-x="840" d="M800 480V320H160V0H0V800H800V640H160V480H800Z" />
<glyph unicode="G" glyph-name="G" horiz-adv-x="840" d="M0 800H800V640H160V160H640V320H480V480H800V0H0V800Z" />
<glyph unicode="H" glyph-name="H" horiz-adv-x="840" d="M0 800H160V480H640V800H800V0H640V320H160V0H0V800Z" />
<glyph unicode="I" glyph-name="I" horiz-adv-x="168" d="M0 800H160V0H0V800Z" />
<glyph unicode="J" glyph-name="J" horiz-adv-x="840" d="M800 800H640V160H0V0H800V800Z" />
<glyph unicode="K" glyph-name="K" horiz-adv-x="840" d="M0 800H160V490H640V800H800V320H640V0H480V320H160V0H0V800Z" />
<glyph unicode="L" glyph-name="L" horiz-adv-x="840" d="M0 800H160V160H800V0H0V800Z" />
<glyph unicode="M" glyph-name="M" horiz-adv-x="840" d="M480 0H320V640H160V0H0V800H800V0H640V640H480V0Z" />
<glyph unicode="N" glyph-name="N" horiz-adv-x="840" d="M0 800H800V0H640V640H160V0H0V800Z" />
<glyph unicode="O" glyph-name="O" horiz-adv-x="840" d="M800 0H400V160H640V640H400V800H800V0ZM400 0H0V800H400V640H160V160H400V0Z" />
<glyph unicode="P" glyph-name="P" horiz-adv-x="840" d="M400 800H800V320H400V480H640V640H400V800ZM160 0H0V800H400V640H160V480H400V320H160V0Z" />
<glyph unicode="Q" glyph-name="Q" horiz-adv-x="729" d="M347 805H694V111H417V5H347V352H417V250H555V666H347V805ZM0 805H347V666H139V250H278V352H347V5H278V111H0V805Z" />
<glyph unicode="R" glyph-name="R" horiz-adv-x="840" d="M400 800H800V320H640V0H480V320H400V490H640V650H400V800ZM0 800H400V650H160V490H400V320H160V0H0V800Z" />
<glyph unicode="S" glyph-name="S" horiz-adv-x="840" d="M800 800H0V320H640V160H0V0H800V480H160V640H800V800Z" />
<glyph unicode="T" glyph-name="T" horiz-adv-x="840" d="M0 800H800V640H480V0H320V640H0V800Z" />
<glyph unicode="U" glyph-name="U" horiz-adv-x="840" d="M800 0H0V800H160V160H640V800H800V0Z" />
<glyph unicode="V" glyph-name="V" horiz-adv-x="840" d="M0 800H240V160H560V800H800V640H720V0H80V640H0V800Z" />
<glyph unicode="W" glyph-name="W" horiz-adv-x="840" d="M320 800H480V160H640V800H800V0H0V800H160V160H320V800Z" />
<glyph unicode="X" glyph-name="X" horiz-adv-x="840" d="M0 800H320V480H480V800H800V640H640V160H800V0H480V320H320V0H0V160H160V640H0V800Z" />
<glyph unicode="Y" glyph-name="Y" horiz-adv-x="840" d="M0 800H160V480H640V800H800V0H0V160H640V320H0V800Z" />
<glyph unicode="Z" glyph-name="Z" horiz-adv-x="840" d="M0 800H800V320H160V160H800V0H0V480H640V640H0V800Z" />
<glyph unicode="a" glyph-name="a" horiz-adv-x="840" d="M400 800H800V0H640V320H400V490H640V650H400V800ZM0 800H400V650H160V490H400V320H160V0H0V800Z" />
<glyph unicode="b" glyph-name="b" horiz-adv-x="840" d="M441 800H800V0H441V160H641V320H441V480H641V640H441V800ZM0 800H441V640H241V480H441V320H241V160H441V0H0V160H80V640H0V800Z" />
<glyph unicode="c" glyph-name="c" horiz-adv-x="840" d="M0 800H800V640H160V160H800V0H0V800Z" />
<glyph unicode="d" glyph-name="d" horiz-adv-x="840" d="M441 800H800V0H441V160H641V640H441V800ZM0 800H441V640H241V160H441V0H0V160H80V640H0V800Z" />
<glyph unicode="e" glyph-name="e" horiz-adv-x="840" d="M800 480V320H160V160H800V0H0V800H800V640H160V480H800Z" />
<glyph unicode="f" glyph-name="f" horiz-adv-x="840" d="M800 480V320H160V0H0V800H800V640H160V480H800Z" />
<glyph unicode="g" glyph-name="g" horiz-adv-x="840" d="M0 800H800V640H160V160H640V320H480V480H800V0H0V800Z" />
<glyph unicode="h" glyph-name="h" horiz-adv-x="840" d="M0 800H160V480H640V800H800V0H640V320H160V0H0V800Z" />
<glyph unicode="i" glyph-name="i" horiz-adv-x="168" d="M0 800H160V0H0V800Z" />
<glyph unicode="j" glyph-name="j" horiz-adv-x="840" d="M800 800H640V160H0V0H800V800Z" />
<glyph unicode="k" glyph-name="k" horiz-adv-x="840" d="M0 800H160V490H640V800H800V320H640V0H480V320H160V0H0V800Z" />
<glyph unicode="l" glyph-name="l" horiz-adv-x="840" d="M0 800H160V160H800V0H0V800Z" />
<glyph unicode="m" glyph-name="m" horiz-adv-x="840" d="M480 0H320V640H160V0H0V800H800V0H640V640H480V0Z" />
<glyph unicode="n" glyph-name="n" horiz-adv-x="840" d="M0 800H800V0H640V640H160V0H0V800Z" />
<glyph unicode="o" glyph-name="o" horiz-adv-x="840" d="M800 0H400V160H640V640H400V800H800V0ZM400 0H0V800H400V640H160V160H400V0Z" />
<glyph unicode="p" glyph-name="p" horiz-adv-x="840" d="M400 800H800V320H400V480H640V640H400V800ZM160 0H0V800H400V640H160V480H400V320H160V0Z" />
<glyph unicode="q" glyph-name="q" horiz-adv-x="729" d="M347 805H694V111H417V5H347V352H417V250H555V666H347V805ZM0 805H347V666H139V250H278V352H347V5H278V111H0V805Z" />
<glyph unicode="r" glyph-name="r" horiz-adv-x="840" d="M400 800H800V320H640V0H480V320H400V490H640V650H400V800ZM0 800H400V650H160V490H400V320H160V0H0V800Z" />
<glyph unicode="s" glyph-name="s" horiz-adv-x="840" d="M800 800H0V320H640V160H0V0H800V480H160V640H800V800Z" />
<glyph unicode="t" glyph-name="t" horiz-adv-x="840" d="M0 800H800V640H480V0H320V640H0V800Z" />
<glyph unicode="u" glyph-name="u" horiz-adv-x="840" d="M800 0H0V800H160V160H640V800H800V0Z" />
<glyph unicode="v" glyph-name="v" horiz-adv-x="840" d="M0 800H240V160H560V800H800V640H720V0H80V640H0V800Z" />
<glyph unicode="w" glyph-name="w" horiz-adv-x="840" d="M320 800H480V160H640V800H800V0H0V800H160V160H320V800Z" />
<glyph unicode="x" glyph-name="x" horiz-adv-x="840" d="M0 800H320V480H480V800H800V640H640V160H800V0H480V320H320V0H0V160H160V640H0V800Z" />
<glyph unicode="y" glyph-name="y" horiz-adv-x="840" d="M0 800H160V480H640V800H800V0H0V160H640V320H0V800Z" />
<glyph unicode="z" glyph-name="z" horiz-adv-x="840" d="M0 800H800V320H160V160H800V0H0V480H640V640H0V800Z" />
</font>
</defs>
</svg>
